<?xml version="1.0" standalone="no"?>
<!DOCTYPE svg PUBLIC "-//W3C//DTD SVG 20010904//EN"
 "http://www.w3.org/TR/2001/REC-SVG-20010904/DTD/svg10.dtd">
<svg version="1.0" xmlns="http://www.w3.org/2000/svg"
 width="1440.000000pt" height="900.000000pt" viewBox="0 0 1440.000000 900.000000"
 preserveAspectRatio="xMidYMid meet">

<g transform="translate(0.000000,900.000000) scale(0.100000,-0.100000)"
fill="#000000" stroke="none">
<path d="M0 4500 l0 -4500 7200 0 7200 0 0 4500 0 4500 -7200 0 -7200 0 0
-4500z m13804 4325 c3 -8 3 -22 0 -30 -4 -10 1 -13 22 -12 25 2 29 -2 35 -38
8 -44 6 -50 -10 -40 -6 3 -11 19 -11 36 0 16 -4 29 -8 29 -15 0 -32 -24 -32
-47 0 -13 -4 -23 -10 -23 -6 0 -10 30 -10 70 0 65 10 90 24 55z m346 -5 c0 -5
-4 -10 -10 -10 -5 0 -10 5 -10 10 0 6 5 10 10 10 6 0 10 -4 10 -10z m-470 -57
l1 -28 15 28 c17 32 34 27 35 -11 1 -26 1 -26 11 6 6 17 15 32 19 32 12 0 11
-5 -3 -51 -12 -43 -32 -51 -42 -16 l-7 22 -9 -22 c-5 -13 -13 -23 -19 -23 -10
0 -21 34 -21 68 0 12 5 22 10 22 6 0 10 -12 10 -27z m268 15 c30 -30 0 -85
-41 -74 -21 5 -27 12 -27 34 0 31 16 52 40 52 9 0 21 -5 28 -12z m106 -34 c2
-40 1 -41 -31 -42 -44 -2 -62 28 -38 64 12 18 24 24 42 22 22 -3 26 -8 27 -44z
m96 1 c0 -45 -13 -61 -23 -26 -6 25 3 71 14 71 5 0 9 -20 9 -45z m98 -2 c2
-26 -1 -43 -7 -43 -6 0 -11 16 -11 36 0 44 -21 42 -35 -4 -13 -45 -25 -40 -25
12 l0 43 38 -1 c36 -1 37 -2 40 -43z m-148 -33 c0 -5 -7 -10 -15 -10 -8 0 -15
5 -15 10 0 6 7 10 15 10 8 0 15 -4 15 -10z m-7293 -806 c-3 -3 -12 -4 -19 -1
-8 3 -5 6 6 6 11 1 17 -2 13 -5z m-430 -216 c-3 -8 -6 -5 -6 6 -1 11 2 17 5
13 3 -3 4 -12 1 -19z m594 -5 c-12 -20 -14 -14 -5 12 4 9 9 14 11 11 3 -2 0
-13 -6 -23z m-84 -15 c-3 -7 -5 -2 -5 12 0 14 2 19 5 13 2 -7 2 -19 0 -25z
m-917 -43 c0 -27 -4 -35 -17 -34 -11 0 -13 3 -5 6 6 2 12 18 12 34 0 16 2 29
5 29 3 0 5 -16 5 -35z m400 -3 c0 -2 -4 -1 -9 3 -5 3 -12 1 -16 -5 -3 -5 -1
-10 5 -10 8 0 8 -6 0 -20 -6 -11 -16 -20 -22 -20 -6 0 -5 6 3 17 10 11 10 17
3 20 -6 2 -9 14 -7 27 5 23 6 23 24 8 10 -9 19 -18 19 -20z m1464 -173 c-9
-11 -19 -17 -21 -15 -8 7 21 45 30 39 4 -3 1 -14 -9 -24z m-3134 -111 c0 -19
-18 -43 -25 -36 -4 3 -2 16 5 27 12 24 20 27 20 9z m3700 -38 c0 -5 -5 -10
-11 -10 -5 0 -7 5 -4 10 3 6 8 10 11 10 2 0 4 -4 4 -10z m-3705 -60 c3 -5 1
-10 -4 -10 -6 0 -11 5 -11 10 0 6 2 10 4 10 3 0 8 -4 11 -10z m-2 -25 c9 -2
24 -10 32 -18 12 -13 12 -17 -3 -29 -9 -8 -24 -19 -32 -23 -13 -7 -13 -6 -2 7
12 15 7 48 -8 48 -16 0 -30 -28 -24 -46 6 -16 5 -17 -7 -6 -7 6 -20 12 -29 12
-13 0 -15 7 -12 29 4 30 24 43 52 34 8 -3 23 -6 33 -8z m1399 -5 c133 -11 280
-41 383 -77 80 -28 305 -133 305 -142 0 -3 -29 -17 -65 -29 -36 -13 -135 -64
-220 -113 -85 -49 -160 -89 -165 -89 -6 0 -19 -5 -29 -12 -15 -9 -25 -9 -46 0
-15 7 -31 10 -36 7 -19 -12 -7 -34 39 -70 75 -61 122 -108 122 -124 0 -8 -7
-22 -16 -32 -9 -10 -13 -23 -9 -28 9 -16 23 -13 30 7 3 9 17 26 32 36 14 11
23 15 20 9 -4 -7 28 -40 73 -78 86 -71 104 -94 94 -119 -8 -20 -33 -20 -58 -1
-46 35 -41 5 20 -120 26 -53 50 -122 59 -167 16 -80 19 -249 6 -282 -13 -33
-24 0 -17 49 8 49 -11 218 -24 223 -5 2 -6 11 -3 20 4 15 3 15 -6 2 -6 -8 -11
-26 -12 -40 0 -18 -4 -13 -14 20 -7 25 -20 65 -29 89 -18 50 -20 65 -6 56 6
-3 10 -16 11 -28 0 -12 8 -42 19 -67 l18 -45 7 37 c7 37 3 48 -53 166 -8 17
-21 32 -28 32 -7 0 -26 17 -41 37 -15 21 -49 65 -75 97 -27 33 -48 65 -48 71
0 19 -36 46 -53 39 -9 -3 -55 17 -114 50 -53 31 -102 56 -108 56 -5 0 21 -18
58 -40 223 -130 362 -314 403 -535 37 -201 -1 -427 -99 -592 -48 -80 -52 -63
-7 26 46 92 78 199 86 291 11 112 -20 287 -70 403 -9 20 -14 37 -11 37 2 0 13
-17 24 -37 11 -21 20 -32 21 -25 0 18 -25 66 -70 132 -105 155 -305 296 -494
347 -88 24 -299 24 -391 -1 -166 -43 -345 -159 -450 -294 -43 -54 -115 -180
-115 -198 0 -5 16 19 34 54 81 150 199 259 350 326 88 39 132 48 246 51 58 1
94 0 80 -2 -49 -8 -149 -42 -202 -69 -126 -63 -307 -230 -292 -269 3 -7 1 -16
-5 -20 -6 -3 -9 0 -5 8 8 21 -24 30 -34 9 -24 -46 -91 -246 -107 -317 -23
-102 -23 -250 0 -327 9 -32 20 -60 26 -63 5 -3 8 -16 7 -28 0 -12 0 -26 2 -32
7 -30 -1 -34 -37 -19 -30 13 -40 13 -60 3 -12 -7 -26 -9 -29 -6 -4 4 1 9 10
13 14 5 13 10 -8 35 -22 26 -23 31 -11 56 12 24 12 40 0 108 -8 44 -16 94 -19
110 -2 17 -2 -15 1 -70 10 -159 8 -164 -47 -165 -64 -1 -311 -60 -380 -90
-201 -87 -387 -281 -470 -490 -37 -91 -50 -150 -57 -252 -5 -84 -8 -95 -19
-80 -7 9 -14 27 -14 40 0 13 -6 35 -14 50 -23 46 -46 214 -46 339 0 263 58
530 172 788 60 136 152 291 205 343 23 24 43 51 43 61 0 10 16 39 35 64 19 25
35 53 35 61 0 8 9 20 19 26 27 14 31 13 24 -7 -14 -37 27 9 46 51 11 25 56 77
116 135 181 173 349 294 425 307 39 6 41 8 20 14 -22 5 -15 11 63 54 118 65
318 146 358 146 18 0 29 3 25 7 -18 18 265 80 424 93 52 4 102 8 110 8 8 1 68
-3 132 -8z m2595 -27 c-9 -9 -19 -14 -23 -11 -10 10 6 28 24 28 15 0 15 -1 -1
-17z m-3897 3 c0 -3 -4 -8 -10 -11 -5 -3 -10 -1 -10 4 0 6 5 11 10 11 6 0 10
-2 10 -4z m4013 -25 c6 -6 7 -12 2 -12 -33 -4 -41 -3 -47 6 -5 6 -8 6 -8 -2 0
-6 5 -15 10 -18 19 -12 10 -22 -20 -22 -16 0 -27 4 -24 8 2 4 -2 9 -8 12 -10
3 -8 10 6 25 20 23 68 24 89 3z m477 -5 c0 -3 -4 -8 -10 -11 -5 -3 -10 -1 -10
4 0 6 5 11 10 11 6 0 10 -2 10 -4z m-1119 -53 c-12 -20 -14 -14 -5 12 4 9 9
14 11 11 3 -2 0 -13 -6 -23z m1060 -7 c12 6 12 5 0 -9 -18 -23 -26 -21 -28 5
-2 16 0 19 6 9 6 -8 14 -10 22 -5z m-201 -16 c-20 -13 -33 -13 -25 0 3 6 14
10 23 10 15 0 15 -2 2 -10z m-164 -11 c11 -19 12 -89 2 -95 -6 -4 -5 -10 3
-15 7 -4 10 -11 6 -15 -10 -11 -37 16 -37 38 0 10 -5 16 -10 13 -7 -4 -7 -12
0 -25 11 -20 4 -50 -11 -50 -5 0 -9 7 -9 16 0 10 -6 14 -15 10 -18 -6 -18 -5
-5 28 6 16 6 27 -1 31 -11 8 40 73 58 74 6 1 15 -4 19 -10z m-723 -14 c-3 -9
-8 -14 -10 -11 -3 3 -2 9 2 15 9 16 15 13 8 -4z m783 -119 c0 -15 -5 -21 -10
-16 -5 5 -6 16 -3 24 9 23 15 19 13 -8z m635 -7 c-5 -13 -10 -19 -10 -12 -1
15 10 45 15 40 3 -2 0 -15 -5 -28z m-581 -9 c0 -5 -5 -10 -11 -10 -5 0 -7 5
-4 10 3 6 8 10 11 10 2 0 4 -4 4 -10z m20 -30 c0 -5 -5 -10 -11 -10 -5 0 -7 5
-4 10 3 6 8 10 11 10 2 0 4 -4 4 -10z m551 -47 c-12 -20 -14 -14 -5 12 4 9 9
14 11 11 3 -2 0 -13 -6 -23z m-5016 -3 c3 -5 2 -10 -4 -10 -5 0 -13 5 -16 10
-3 6 -2 10 4 10 5 0 13 -4 16 -10z m4995 -16 c0 -4 -7 -3 -16 0 -9 3 -25 -1
-37 -9 -35 -24 -45 -16 -13 10 23 18 34 21 48 14 10 -5 18 -12 18 -15z m-4930
-53 c0 -12 -20 -25 -27 -18 -7 7 6 27 18 27 5 0 9 -4 9 -9z m2570 -117 c69
-20 137 -64 225 -145 39 -36 133 -118 210 -184 196 -168 307 -276 463 -455 75
-85 167 -190 205 -232 l69 -78 -33 -27 c-44 -37 -55 -68 -84 -240 -38 -224
-151 -614 -187 -649 -7 -7 -211 -153 -453 -326 -405 -289 -899 -647 -1205
-874 -69 -50 -199 -147 -290 -213 l-165 -121 -105 1 c-58 0 -129 4 -159 8 -49
7 -59 13 -103 62 -28 30 -89 95 -137 144 -85 88 -170 222 -156 244 3 5 -1 27
-9 48 -37 99 -32 115 89 268 119 152 250 359 303 481 53 121 73 196 87 329 9
75 22 100 79 153 41 38 161 102 192 102 16 0 133 62 190 101 74 50 316 305
376 395 144 217 172 460 84 716 -33 94 -34 99 -15 108 28 15 51 68 47 105 -4
32 1 37 112 119 104 78 273 176 304 176 7 0 37 -7 66 -16z m2428 -49 c-2 -1
-13 -7 -24 -13 -20 -10 -22 -9 -20 12 1 20 4 22 24 13 12 -6 21 -11 20 -12z
m-3875 -2 c-7 -2 -19 -2 -25 0 -7 3 -2 5 12 5 14 0 19 -2 13 -5z m332 -68 c39
-19 84 -46 100 -59 19 -17 3 -10 -48 18 -43 24 -92 49 -110 56 -61 23 -75 31
-42 25 17 -3 62 -21 100 -40z m-1810 -5 c-3 -5 -12 -10 -18 -10 -7 0 -6 4 3
10 19 12 23 12 15 0z m1594 -60 c191 -22 353 -144 451 -343 85 -171 88 -278
12 -510 l-35 -108 -88 -83 c-139 -131 -295 -200 -444 -198 -135 2 -315 62
-324 107 -3 21 -110 132 -122 128 -13 -4 -70 68 -88 111 -36 82 -43 113 -48
216 -6 128 15 219 80 344 79 153 208 257 368 297 30 8 70 21 89 31 42 20 42
20 149 8z m-579 -255 c0 -3 -20 -42 -43 -88 -63 -119 -90 -233 -85 -361 2 -55
8 -110 12 -121 4 -11 1 -9 -7 5 -24 40 -38 178 -26 251 12 76 56 191 100 265
29 46 49 67 49 49z m1370 -30 c0 -5 -5 -3 -10 5 -5 8 -10 20 -10 25 0 6 5 3
10 -5 5 -8 10 -19 10 -25z m17 -30 c9 -24 -1 -27 -15 -5 -8 13 -8 20 -2 20 6
0 13 -7 17 -15z m3303 -129 c0 -2 -7 -7 -16 -10 -8 -3 -12 -2 -9 4 6 10 25 14
25 6z m-77 -13 c-7 -2 -21 -2 -30 0 -10 3 -4 5 12 5 17 0 24 -2 18 -5z m-94
-94 c-22 -13 -31 -11 -17 5 7 8 17 12 22 9 4 -3 2 -9 -5 -14z m-6204 -19 c-3
-5 -14 -10 -23 -9 -14 0 -13 2 3 9 27 11 27 11 20 0z m6662 -57 c-3 -10 -5 -4
-5 12 0 17 2 24 5 18 2 -7 2 -21 0 -30z m-3623 -175 c-30 -100 -132 -277 -185
-323 -16 -14 -12 -5 13 30 61 87 110 182 151 298 10 26 30 21 21 -5z m3411
-98 c3 -6 -4 -10 -17 -10 -18 0 -20 2 -8 10 19 12 18 12 25 0z m-6973 -80 c18
-11 29 -20 25 -20 -11 0 -67 29 -67 35 0 9 9 5 42 -15z m5575 -41 c81 -11 184
-29 227 -40 90 -23 236 -86 236 -102 0 -6 9 -20 19 -31 23 -25 51 -128 53
-191 1 -82 -52 -129 -120 -106 -84 28 -219 97 -251 128 -50 50 -62 30 -32 -55
31 -88 92 -180 184 -274 146 -149 166 -195 207 -478 17 -119 15 -314 -5 -399
-19 -83 -40 -136 -55 -146 -6 -4 -8 -11 -5 -16 4 -5 1 -9 -4 -9 -6 0 -11 -6
-11 -13 0 -7 -20 -33 -45 -59 -54 -57 -124 -82 -185 -67 -15 4 -85 104 -132
189 -38 68 -77 132 -245 400 -84 135 -153 255 -153 267 0 12 27 127 60 257 81
322 94 406 95 608 0 91 3 164 7 162 4 -2 73 -14 155 -25z m1787 -3 c-3 -9 -10
-16 -15 -16 -5 0 -4 9 3 20 14 22 21 20 12 -4z m-5554 7 c-234 -28 -426 -121
-547 -266 -21 -25 -45 -45 -53 -44 -9 1 -14 -5 -12 -15 1 -9 -11 -27 -26 -40
-73 -59 -125 -210 -137 -400 -5 -88 4 -144 45 -293 13 -44 25 -91 28 -105 5
-23 4 -24 -14 -10 -34 27 -53 54 -88 125 -157 318 -60 704 228 910 115 82 272
137 384 134 29 -1 54 0 57 2 2 2 41 5 87 5 46 1 67 -1 48 -3z m390 -18 c13
-14 21 -25 18 -25 -2 0 -15 11 -28 25 -13 14 -21 25 -18 25 2 0 15 -11 28 -25z
m-1966 -75 c6 -32 5 -33 -8 -15 -9 11 -16 31 -16 45 0 33 16 13 24 -30z m1731
-76 c33 -14 66 -28 74 -31 10 -5 12 -2 6 8 -5 8 -5 11 1 6 5 -5 9 -12 9 -17 0
-4 23 -24 50 -44 l50 -37 -45 42 c-50 47 -38 43 30 -9 63 -49 153 -148 191
-210 75 -123 90 -291 40 -441 -16 -48 -43 -111 -60 -140 -31 -53 -39 -77 -21
-66 6 3 10 2 10 -3 0 -5 -37 -40 -82 -78 -46 -38 -85 -72 -88 -75 -13 -17
-146 -82 -192 -95 -72 -19 -103 -18 -63 1 17 8 21 13 10 10 -149 -34 -161 -35
-242 -15 -135 34 -233 72 -233 91 0 6 5 7 10 4 6 -3 15 -3 20 0 6 4 -9 22 -34
42 -25 19 -64 59 -87 89 -45 58 -56 64 -39 19 8 -20 8 -31 0 -39 -7 -6 -10 -7
-9 -1 3 15 -12 45 -23 45 -5 0 -6 -4 -3 -10 3 -5 4 -10 2 -10 -8 0 -58 82 -53
87 2 3 12 -9 21 -27 24 -47 29 -29 6 21 -11 24 -23 64 -27 89 -4 25 -9 37 -12
28 -6 -31 -21 -20 -33 25 -7 26 -9 88 -6 167 3 100 9 138 29 191 35 94 99 201
113 187 4 -3 1 -17 -5 -30 -7 -12 10 2 38 33 66 73 186 154 259 175 64 19 213
41 283 43 27 0 69 -9 105 -25z m870 -193 c-19 -8 -76 -18 -217 -39 -32 -5 -58
-6 -58 -1 0 10 32 16 150 30 52 6 97 13 99 15 2 2 14 4 25 3 21 0 21 0 1 -8z
m-1681 -159 c-33 -77 -53 -175 -54 -261 0 -24 -3 -41 -7 -38 -13 13 -4 189 12
236 14 44 69 141 79 141 2 0 -11 -35 -30 -78z m1462 -29 c12 -121 7 -278 -10
-338 l-15 -50 7 60 c9 80 9 221 -1 328 -5 54 -4 87 2 87 5 0 13 -39 17 -87z
m4670 -65 c-10 -6 -20 -7 -24 -3 -9 8 20 25 31 18 5 -3 2 -10 -7 -15z m-7542
-117 c7 -11 -17 -21 -47 -21 -22 1 -22 1 -3 15 22 17 42 19 50 6z m316 -3 c0
-6 -9 -8 -19 -5 -12 3 -22 -1 -25 -9 -3 -8 -11 -14 -17 -14 -8 0 -6 6 4 18 18
20 57 27 57 10z m-396 -13 c-4 -8 -10 -15 -15 -15 -4 0 -6 7 -3 15 4 8 10 15
15 15 4 0 6 -7 3 -15z m7653 -17 c-3 -8 -6 -5 -6 6 -1 11 2 17 5 13 3 -3 4
-12 1 -19z m-7142 -28 c-3 -5 -13 -10 -21 -10 -8 0 -12 5 -9 10 3 6 13 10 21
10 8 0 12 -4 9 -10z m2335 -150 c-19 -59 -52 -132 -83 -181 -51 -83 -162 -205
-227 -249 l-35 -24 25 30 c14 16 51 56 82 89 31 33 76 85 98 115 52 69 126
219 140 285 15 70 23 86 28 57 2 -13 -11 -68 -28 -122z m-2385 120 c3 -5 1
-10 -4 -10 -6 0 -11 5 -11 10 0 6 2 10 4 10 3 0 8 -4 11 -10z m56 -17 c-12
-20 -14 -14 -5 12 4 9 9 14 11 11 3 -2 0 -13 -6 -23z m-301 -37 c0 -2 -7 -6
-15 -10 -8 -3 -15 -1 -15 4 0 6 7 10 15 10 8 0 15 -2 15 -4z m89 -71 c4 -5 -2
-6 -41 -9 -7 -1 -16 -5 -19 -10 -9 -11 -32 31 -24 44 5 9 69 -11 84 -25z m8
29 c-3 -3 -12 -4 -19 -1 -8 3 -5 6 6 6 11 1 17 -2 13 -5z m1213 -102 c0 -15
-2 -15 -10 -2 -13 20 -13 33 0 25 6 -3 10 -14 10 -23z m-1141 -1 c17 -11 -1
-23 -23 -15 -10 4 -16 1 -16 -9 0 -8 6 -17 13 -20 6 -2 9 -8 4 -13 -4 -4 -14
2 -23 14 -8 12 -20 20 -25 17 -5 -4 -9 -2 -9 3 0 9 37 30 55 31 6 0 16 -3 24
-8z m960 -83 c53 -97 89 -147 158 -215 34 -35 61 -63 58 -63 -2 0 -34 26 -70
59 -92 81 -166 182 -189 259 -14 43 10 21 43 -40z m-1199 38 c0 -11 -19 -15
-25 -6 -3 5 1 10 9 10 9 0 16 -2 16 -4z m1460 -110 c30 -32 45 -54 33 -48 -26
14 -82 79 -106 124 -17 31 -17 32 0 8 10 -14 43 -52 73 -84z m-1320 78 c0 -2
-7 -4 -15 -4 -8 0 -15 4 -15 10 0 5 7 7 15 4 8 -4 15 -8 15 -10z m125 -22 c-8
-8 -25 10 -19 20 4 6 9 5 15 -3 4 -7 6 -15 4 -17z m-349 -67 c-11 -8 -27 -15
-35 -15 -11 0 -10 4 5 15 10 8 26 14 34 14 11 0 10 -3 -4 -14z m-259 -32 c-3
-10 -5 -4 -5 12 0 17 2 24 5 18 2 -7 2 -21 0 -30z m5013 -3 c0 -5 -4 -10 -10
-10 -5 0 -10 5 -10 10 0 6 5 10 10 10 6 0 10 -4 10 -10z m40 -15 c0 -2 -6 -5
-13 -8 -8 -3 -14 1 -14 8 0 7 6 11 14 8 7 -3 13 -6 13 -8z m2890 -105 c0 -5
-8 -10 -17 -10 -15 0 -16 2 -3 10 19 12 20 12 20 0z m-140 -10 c19 -12 -52
-12 -90 0 -20 6 -15 8 25 9 28 0 57 -4 65 -9z m127 -16 c-3 -3 -12 -4 -19 -1
-8 3 -5 6 6 6 11 1 17 -2 13 -5z m-7780 -100 c-3 -3 -12 -4 -19 -1 -8 3 -5 6
6 6 11 1 17 -2 13 -5z m1819 -3 c12 -12 131 -40 197 -48 63 -7 97 -22 50 -23
-34 0 -177 18 -204 26 -19 5 -74 54 -62 54 5 0 13 -4 19 -9z m2454 -215 c0 -3
-4 -8 -10 -11 -5 -3 -10 -1 -10 4 0 6 5 11 10 11 6 0 10 -2 10 -4z m-323 -202
c-3 -3 -12 -4 -19 -1 -8 3 -5 6 6 6 11 1 17 -2 13 -5z m15 -26 c-7 -7 -12 -8
-12 -2 0 14 12 26 19 19 2 -3 -1 -11 -7 -17z m-3105 -84 c-3 -3 -12 -4 -19 -1
-8 3 -5 6 6 6 11 1 17 -2 13 -5z m2940 0 c-3 -3 -12 -4 -19 -1 -8 3 -5 6 6 6
11 1 17 -2 13 -5z m3 -34 c0 -5 -4 -10 -10 -10 -5 0 -10 5 -10 10 0 6 5 10 10
10 6 0 10 -4 10 -10z m827 -6 c-3 -3 -12 -4 -19 -1 -8 3 -5 6 6 6 11 1 17 -2
13 -5z m-47 -24 c0 -5 -5 -10 -11 -10 -5 0 -7 5 -4 10 3 6 8 10 11 10 2 0 4
-4 4 -10z m-4133 -26 c-3 -3 -12 -4 -19 -1 -8 3 -5 6 6 6 11 1 17 -2 13 -5z
m3933 -94 c0 -5 -5 -10 -11 -10 -5 0 -7 5 -4 10 3 6 8 10 11 10 2 0 4 -4 4
-10z m-1320 -506 c111 -19 205 -33 255 -38 22 -2 59 -11 82 -19 47 -17 144
-81 156 -103 5 -8 13 -11 19 -8 7 5 9 2 5 -9 -3 -9 1 -18 10 -21 9 -4 13 -9
10 -12 -8 -8 16 -33 26 -27 6 3 10 -12 5 -19 -5 -9 25 -48 38 -48 8 0 12 -4 9
-10 -3 -5 -1 -10 5 -10 6 0 8 -4 5 -10 -3 -5 -1 -10 4 -10 6 0 10 -6 8 -12 -1
-7 4 -12 11 -11 11 3 16 -10 13 -30 -1 -4 6 -10 14 -13 8 -4 15 -15 15 -25 0
-17 17 -56 30 -69 3 -3 6 -9 6 -15 1 -5 4 -25 7 -42 6 -30 4 -33 -21 -39 -15
-3 -33 -7 -40 -10 -22 -7 -96 28 -147 71 -27 23 -70 50 -95 60 -25 11 -63 32
-84 47 -21 16 -46 28 -55 28 -9 0 -25 6 -36 13 -33 22 -122 48 -188 53 -106
10 -212 -16 -299 -73 -14 -10 -91 -62 -171 -115 -149 -101 -206 -131 -344
-179 -145 -51 -206 -55 -474 -34 -92 7 -226 98 -322 219 -38 47 -47 66 -47 97
0 22 -1 42 -2 47 -4 16 106 82 136 82 17 0 49 11 71 25 22 13 45 25 51 25 6 0
65 -47 133 -105 220 -191 239 -196 396 -112 119 63 236 175 327 312 33 49 67
95 76 102 70 55 240 75 402 47z m-2613 -396 c-3 -8 -6 -5 -6 6 -1 11 2 17 5
13 3 -3 4 -12 1 -19z m433 -52 c0 -3 -4 -8 -10 -11 -5 -3 -10 -1 -10 4 0 6 5
11 10 11 6 0 10 -2 10 -4z m-11 -47 c-16 -10 -23 -4 -14 10 3 6 11 8 17 5 6
-4 5 -9 -3 -15z m-179 -59 c0 -5 -5 -10 -11 -10 -5 0 -7 5 -4 10 3 6 8 10 11
10 2 0 4 -4 4 -10z m30 -10 c0 -5 -4 -10 -10 -10 -5 0 -10 5 -10 10 0 6 5 10
10 10 6 0 10 -4 10 -10z m10 -26 c-18 -21 -24 -10 -8 15 7 12 14 17 16 11 2
-6 -2 -17 -8 -26z m5658 -6 c23 -19 12 -27 -20 -14 -39 17 -53 42 -17 31 13
-4 30 -12 37 -17z m-5643 -28 c3 -5 -1 -10 -10 -10 -9 0 -13 5 -10 10 3 6 8
10 10 10 2 0 7 -4 10 -10z m5683 -25 c-3 -3 -9 2 -12 12 -6 14 -5 15 5 6 7 -7
10 -15 7 -18z m106 -21 c7 -19 2 -18 -19 6 -16 17 -16 20 -3 15 9 -4 19 -13
22 -21z m93 -46 c-3 -8 -6 -5 -6 6 -1 11 2 17 5 13 3 -3 4 -12 1 -19z m-5262
-98 c-74 -24 -82 -24 -30 1 22 10 51 18 65 18 15 0 1 -8 -35 -19z m128 -226
c7 -7 -14 -44 -25 -44 -5 0 -8 11 -8 25 0 23 18 34 33 19z m959 -166 c-6 -6
-15 -8 -19 -4 -4 4 -1 11 7 16 19 12 27 3 12 -12z m3461 -35 c-7 -2 -19 -2
-25 0 -7 3 -2 5 12 5 14 0 19 -2 13 -5z m-3630 -38 c-3 -9 -8 -14 -10 -11 -3
3 -2 9 2 15 9 16 15 13 8 -4z m3274 -71 c-3 -3 -12 -4 -19 -1 -8 3 -5 6 6 6
11 1 17 -2 13 -5z m-647 -45 c0 -5 -9 -1 -20 8 -11 10 -20 22 -20 27 0 5 9 1
20 -9 11 -10 20 -22 20 -26z m-1170 -71 c-11 -10 -20 -14 -20 -9 0 5 5 13 10
16 6 3 10 18 11 33 l0 27 10 -24 c8 -19 5 -28 -11 -43z m1590 32 c0 -5 -4 -10
-10 -10 -5 0 -10 5 -10 10 0 6 5 10 10 10 6 0 10 -4 10 -10z m-2656 -45 c-4
-8 -10 -15 -15 -15 -5 0 -9 7 -9 15 0 8 7 15 15 15 9 0 12 -6 9 -15z m1823
-117 c-3 -7 -5 -2 -5 12 0 14 2 19 5 13 2 -7 2 -19 0 -25z m-792 2 c3 -5 1
-10 -4 -10 -6 0 -11 5 -11 10 0 6 2 10 4 10 3 0 8 -4 11 -10z m-745 -29 c0
-14 -29 -21 -36 -9 -4 6 -3 8 4 4 6 -3 13 -2 17 4 8 12 15 13 15 1z m70 -61
c0 -5 -4 -10 -10 -10 -5 0 -10 5 -10 10 0 6 5 10 10 10 6 0 10 -4 10 -10z
m1727 -46 c-3 -3 -12 -4 -19 -1 -8 3 -5 6 6 6 11 1 17 -2 13 -5z m5713 -359
c0 -16 6 -25 15 -25 11 0 15 -11 15 -38 0 -47 5 -53 36 -42 19 8 28 5 44 -12
11 -12 20 -17 20 -10 0 19 47 44 70 37 12 -4 28 -22 37 -40 15 -32 16 -32 34
-14 11 11 26 19 34 19 8 0 15 5 15 10 0 6 -12 10 -26 10 -37 0 -25 24 15 28
50 5 73 -21 69 -78 l-3 -45 45 0 c33 0 45 -4 45 -15 0 -16 -80 -34 -105 -24
-8 4 -29 6 -47 5 -23 -2 -36 3 -44 18 -13 19 -13 19 -36 -5 -12 -13 -30 -24
-41 -24 -19 0 -62 34 -62 50 0 23 -19 8 -22 -17 -2 -20 -9 -29 -25 -31 -20 -3
-21 -1 -12 34 7 25 7 40 0 47 -15 15 -22 5 -28 -42 -4 -30 -10 -41 -23 -41
-20 0 -30 35 -31 109 -1 56 -12 36 -29 -51 -6 -32 -15 -58 -19 -58 -5 0 -20
26 -33 58 l-25 57 -19 -58 c-10 -31 -21 -54 -25 -50 -11 12 -79 173 -79 188 0
7 14 15 31 17 26 4 32 1 43 -25 l12 -30 12 41 c7 23 16 42 20 42 5 0 17 -19
27 -42 18 -41 19 -42 26 -18 4 14 7 37 8 52 1 25 4 28 54 37 4 0 7 -10 7 -24z
m537 -41 c4 -10 -1 -22 -12 -30 -16 -12 -17 -14 -2 -20 14 -5 17 -21 17 -81 0
-64 -2 -74 -16 -69 -9 3 -17 6 -19 6 -6 0 -13 54 -19 127 -4 52 -2 64 12 72
24 14 32 13 39 -5z m130 -66 c-3 -13 -11 -51 -18 -85 -7 -35 -17 -63 -21 -63
-4 0 -8 5 -8 11 0 6 -7 3 -16 -5 -32 -33 -41 -19 -46 67 -3 45 -4 84 -2 86 3
3 18 -11 34 -30 29 -34 29 -34 30 -8 0 28 17 49 38 49 10 0 12 -7 9 -22z"/>
<path d="M13907 8764 c-15 -15 -7 -45 11 -42 9 2 17 12 17 22 0 20 -16 31 -28
20z"/>
<path d="M14000 8755 c-14 -16 -6 -35 16 -35 8 0 14 10 14 25 0 28 -12 32 -30
10z"/>
<path d="M5910 6701 c0 -9 24 -21 42 -21 6 0 6 6 -2 15 -14 16 -40 20 -40 6z"/>
<path d="M6107 6660 c-6 -24 6 -31 82 -54 l54 -16 -19 21 c-21 24 -89 69 -103
69 -5 0 -11 -9 -14 -20z"/>
<path d="M6921 5088 c-8 -22 -8 -34 -1 -36 5 -2 10 -10 10 -18 0 -8 6 -14 14
-14 8 0 16 -6 19 -12 3 -10 10 -8 24 5 38 33 11 107 -38 107 -10 0 -22 -13
-28 -32z"/>
<path d="M7086 4864 c-9 -8 -16 -24 -16 -34 0 -10 -12 -27 -26 -38 -24 -16
-27 -26 -29 -83 -2 -78 -25 -131 -95 -224 -109 -144 -188 -205 -267 -205 -45
0 -93 17 -93 33 0 6 26 51 59 101 55 85 146 256 137 256 -2 0 -21 -30 -41 -66
-80 -143 -329 -488 -429 -594 -130 -138 -208 -192 -339 -236 -43 -14 -77 -27
-75 -29 4 -4 96 20 161 41 43 14 51 14 95 -2 46 -17 75 -40 67 -54 -2 -4 -7
-22 -10 -40 -3 -18 -14 -39 -23 -46 -14 -11 -7 -13 49 -14 74 0 178 17 197 32
6 6 12 21 12 35 0 67 165 284 250 328 18 9 50 18 72 19 21 0 38 3 38 6 0 3 -9
24 -21 45 -24 47 -19 105 13 170 27 53 186 207 240 233 24 12 66 24 95 28 57
7 63 15 63 90 0 83 -44 264 -65 264 -2 0 -11 -7 -19 -16z m-537 -630 c12 -15
21 -33 21 -41 0 -66 -199 -292 -323 -365 -56 -34 -73 -40 -103 -35 -63 11 -64
9 61 107 60 46 186 188 265 297 25 34 48 63 52 63 4 0 16 -12 27 -26z"/>
<path d="M5617 5995 c-144 -37 -219 -216 -141 -341 32 -53 90 -99 142 -114 31
-8 37 -6 79 33 69 64 203 228 203 249 0 31 -37 93 -72 123 -62 53 -135 70
-211 50z"/>
<path d="M5232 5128 c16 -18 41 -50 55 -70 29 -43 45 -52 17 -10 -26 41 -87
112 -96 112 -4 0 7 -15 24 -32z"/>
<path d="M4816 5035 c-51 -18 -112 -79 -132 -132 -23 -60 -14 -151 20 -203 34
-52 108 -102 161 -108 42 -4 43 -4 97 64 87 110 158 218 158 243 0 33 -98 127
-146 140 -52 15 -111 13 -158 -4z"/>
<path d="M5387 4618 c-9 -40 -35 -111 -58 -158 -34 -68 -60 -102 -133 -176
-56 -56 -116 -105 -156 -127 -71 -40 -75 -50 -7 -16 110 56 207 144 269 244
51 85 116 265 106 296 -2 6 -11 -22 -21 -63z"/>
<path d="M13300 511 c0 -20 23 -45 33 -35 7 8 -14 54 -25 54 -4 0 -8 -8 -8
-19z"/>
<path d="M13432 509 c2 -7 10 -15 17 -17 8 -3 12 1 9 9 -2 7 -10 15 -17 17 -8
3 -12 -1 -9 -9z"/>
</g>
</svg>
